<svg width="206" height="205" viewBox="0 0 206 205" fill="none" xmlns="http://www.w3.org/2000/svg">
<g id="Group 2402">
<path id="Ellipse 227" d="M51.8964 153.471C45.1853 146.76 39.8618 138.793 36.2298 130.024C32.5978 121.256 30.7285 111.858 30.7285 102.367C30.7285 92.8763 32.5978 83.4784 36.2298 74.71C39.8618 65.9416 45.1853 57.9744 51.8964 51.2633L103 102.367L51.8964 153.471Z" fill="#A155B9"/>
<path id="Ellipse 228" d="M147.844 146.072C142.274 151.793 135.631 156.36 128.295 159.513C120.959 162.666 113.074 164.343 105.09 164.449C97.1063 164.555 89.1796 163.087 81.7629 160.13C74.3461 157.172 67.5845 152.783 61.8641 147.212L104.284 103.652L147.844 146.072Z" fill="#096BDE"/>
<path id="Ellipse 229" d="M141.062 66.0266C145.874 70.6823 149.722 76.2403 152.386 82.3832C155.051 88.5261 156.479 95.1336 156.59 101.828C156.7 108.523 155.491 115.174 153.032 121.402C150.572 127.63 146.909 133.312 142.254 138.124L105.609 102.671L141.062 66.0266Z" fill="#DA93A1"/>
<path id="Ellipse 230" d="M77.2734 74.0431C80.8238 70.4741 85.0423 68.0805 89.6881 66.1418C94.334 64.2031 99.3162 63.1984 104.35 63.1852C109.385 63.172 114.372 64.1504 119.028 66.0647C123.684 67.9789 127.828 70.0516 131.397 73.6019L104.451 101.52L77.2734 74.0431Z" fill="#4318FF"/>
</g>
</svg>
