<svg width="22" height="22" viewBox="0 0 22 22" fill="none" xmlns="http://www.w3.org/2000/svg">
<g id="elements">
<path id="Ellipse 1385" d="M8 1.45703C3.94289 2.73129 1 6.52159 1 10.9992C1 15.2908 3.70333 18.9509 7.5 20.3696C18 15.9992 13.5 4.49923 8 1.45703Z" fill="#185087" fill-opacity="0.5"/>
<path id="Ellipse 1384" d="M11 21C16.5228 21 21 16.5228 21 11C21 5.47715 16.5228 1 11 1C9.95479 1 8.94704 1.16035 8 1.4578C13.5 4.5 18 16 7.5 20.3704C8.58934 20.7775 9.76868 21 11 21Z" fill="#185087"/>
<path id="Ellipse 1381" d="M21 11C21 16.5228 16.5228 21 11 21C5.47715 21 1 16.5228 1 11C1 5.47715 5.47715 1 11 1C16.5228 1 21 5.47715 21 11Z" stroke="#0D84F4" stroke-width="1.5"/>
<path id="Ellipse 1383" d="M7.5 1.62891C11.2967 3.04764 14 6.70777 14 10.9993C14 15.2908 11.2967 18.951 7.5 20.3697" stroke="#0D84F4" stroke-width="1.5"/>
</g>
</svg>
