<svg width="63" height="22" viewBox="0 0 63 22" fill="none" xmlns="http://www.w3.org/2000/svg">
<path fill-rule="evenodd" clip-rule="evenodd" d="M16.8596 8.29299H18.9383V12.4315L18.8259 13.7049H18.9383C19.1879 13.3054 19.5687 12.9589 20.0805 12.6656C20.5924 12.3722 21.2041 12.2255 21.9157 12.2255C22.5025 12.2255 23.0611 12.3472 23.5917 12.5907C24.1223 12.8341 24.5873 13.1743 24.9868 13.6112C25.3863 14.0482 25.7047 14.5632 25.9419 15.1562C26.1791 15.7492 26.2977 16.4015 26.2977 17.1131C26.2977 17.8247 26.1791 18.477 25.9419 19.07C25.7047 19.6629 25.3863 20.1779 24.9868 20.6149C24.5873 21.0518 24.1223 21.392 23.5917 21.6355C23.0611 21.8789 22.5025 22.0006 21.9157 22.0006C21.2041 22.0006 20.5924 21.8539 20.0805 21.5605C19.5687 21.2672 19.1879 20.9207 18.9383 20.5212H18.8259V21.701H16.8596V8.29299ZM21.5225 20.0718C21.872 20.0718 22.2122 20.0032 22.5431 19.8658C22.8739 19.7285 23.161 19.5319 23.4045 19.2759C23.6479 19.02 23.8445 18.711 23.9943 18.349C24.1441 17.987 24.2191 17.575 24.2191 17.1131C24.2191 16.6511 24.1441 16.2392 23.9943 15.8771C23.8445 15.5151 23.6479 15.2061 23.4045 14.9502C23.161 14.6942 22.8739 14.4976 22.5431 14.3603C22.2122 14.223 21.872 14.1543 21.5225 14.1543C21.1604 14.1543 20.8171 14.223 20.4925 14.3603C20.1679 14.4976 19.8839 14.6911 19.6405 14.9408C19.397 15.1905 19.2004 15.4995 19.0506 15.8678C18.9008 16.2361 18.8259 16.6511 18.8259 17.1131C18.8259 17.575 18.9008 17.9901 19.0506 18.3584C19.2004 18.7266 19.397 19.0356 19.6405 19.2853C19.8839 19.535 20.1679 19.7285 20.4925 19.8658C20.8171 20.0032 21.1604 20.0718 21.5225 20.0718ZM27.777 21.701V8.29297L29.8557 8.29576V21.701H27.777ZM38.3387 20.4651H38.2263C37.9517 20.902 37.5615 21.2672 37.0559 21.5605C36.5503 21.8539 35.9792 22.0006 35.3425 22.0006C34.1815 22.0006 33.3138 21.6542 32.7395 20.9613C32.1653 20.2684 31.8781 19.3477 31.8781 18.1992V12.5251H33.9567V17.9183C33.9567 18.7173 34.1409 19.2759 34.5091 19.5943C34.8774 19.9127 35.3612 20.0718 35.9604 20.0718C36.31 20.0718 36.6252 19.9969 36.9061 19.8471C37.187 19.6973 37.4273 19.4944 37.6271 19.2385C37.8268 18.9826 37.9766 18.6892 38.0765 18.3584C38.1764 18.0275 38.2263 17.6811 38.2263 17.3191V12.5251H40.3049V21.701H38.3387V20.4651ZM50.8104 19.51C50.4234 20.2216 49.8741 20.8146 49.1625 21.289C48.4509 21.7634 47.577 22.0006 46.5408 22.0006C45.8542 22.0006 45.2206 21.8789 44.6401 21.6355C44.0596 21.392 43.5571 21.0518 43.1326 20.6149C42.7081 20.1779 42.3773 19.6629 42.1401 19.07C41.9029 18.477 41.7843 17.8247 41.7843 17.1131C41.7843 16.4514 41.8967 15.8241 42.1214 15.2311C42.3461 14.6381 42.6613 14.12 43.0671 13.6768C43.4728 13.2336 43.9628 12.8809 44.5371 12.6188C45.1113 12.3566 45.748 12.2255 46.4472 12.2255C47.1587 12.2255 47.7923 12.3441 48.3479 12.5813C48.9034 12.8185 49.3747 13.1493 49.7617 13.5738C50.1487 13.9982 50.4452 14.5101 50.6512 15.1094C50.8572 15.7086 50.9602 16.364 50.9602 17.0756C50.9602 17.138 50.9602 17.1942 50.9602 17.2442C50.9477 17.3066 50.9415 17.3627 50.9415 17.4127C50.929 17.4626 50.9227 17.5125 50.9227 17.5625H43.8629C43.9004 17.9994 44.0065 18.3802 44.1813 18.7048C44.3561 19.0294 44.5714 19.2978 44.8273 19.51C45.0833 19.7223 45.3673 19.8783 45.6794 19.9782C45.9915 20.0781 46.2973 20.128 46.597 20.128C47.1962 20.128 47.6893 19.9844 48.0763 19.6973C48.4634 19.4101 48.7817 19.0544 49.0314 18.6299L50.8104 19.51ZM48.8816 15.9708C48.8566 15.7835 48.7973 15.5744 48.7037 15.3434C48.6101 15.1125 48.4665 14.9002 48.273 14.7067C48.0795 14.5132 47.8298 14.3478 47.5239 14.2105C47.218 14.0732 46.8467 14.0045 46.4097 14.0045C45.8105 14.0045 45.2955 14.1824 44.8648 14.5382C44.4341 14.894 44.1438 15.3715 43.994 15.9708H48.8816Z" fill="white"/>
<path fill-rule="evenodd" clip-rule="evenodd" d="M15.008 19.5111C14.621 20.2227 14.0717 20.8157 13.3601 21.2901C12.6485 21.7645 11.7746 22.0017 10.7384 22.0017C10.0518 22.0017 9.41821 21.88 8.83769 21.6365C8.25719 21.3931 7.75469 21.0529 7.33025 20.6159C6.90577 20.179 6.57496 19.664 6.33775 19.071C6.10054 18.478 5.98193 17.8257 5.98193 17.1141C5.98193 16.4525 6.0943 15.8251 6.319 15.2321C6.54372 14.6391 6.85897 14.121 7.2647 13.6779C7.67042 13.2347 8.16044 12.882 8.73471 12.6198C9.30897 12.3577 9.94569 12.2266 10.6448 12.2266C11.3564 12.2266 11.99 12.3452 12.5455 12.5824C13.101 12.8196 13.5723 13.1504 13.9593 13.5748C14.3464 13.9993 14.6428 14.5112 14.8488 15.1104C15.0548 15.7096 15.1578 16.3651 15.1578 17.0767C15.1578 17.1391 15.1578 17.1953 15.1578 17.2452C15.1453 17.3076 15.1391 17.3638 15.1391 17.4137C15.1266 17.4637 15.1204 17.5136 15.1204 17.5635H8.06055C8.098 18.0005 8.20414 18.3813 8.37891 18.7059C8.55368 19.0304 8.76903 19.2988 9.02494 19.5111C9.2809 19.7233 9.56491 19.8794 9.87699 19.9792C10.1891 20.0791 10.495 20.129 10.7946 20.129C11.3938 20.129 11.887 19.9855 12.274 19.6984C12.661 19.4112 12.9793 19.0554 13.229 18.6309L15.008 19.5111ZM13.0792 15.9718C13.0542 15.7846 12.9949 15.5754 12.9013 15.3445C12.8077 15.1135 12.6641 14.9013 12.4706 14.7078C12.2771 14.5143 12.0274 14.3489 11.7215 14.2116C11.4157 14.0742 11.0443 14.0056 10.6073 14.0056C10.0081 14.0056 9.49312 14.1835 9.06241 14.5392C8.63171 14.8951 8.34145 15.3726 8.19165 15.9718H13.0792Z" fill="#5AC832"/>
<path fill-rule="evenodd" clip-rule="evenodd" d="M0 21.703V16.5063C0 13.3826 3.23889 11.2653 6.10519 12.5496L5.57175 14.1874C3.73864 13.4908 2.05121 14.6431 2.07984 16.5175V21.703H0Z" fill="#5AC832"/>
<path fill-rule="evenodd" clip-rule="evenodd" d="M55.6166 9.12997C55.7669 9.37725 55.8127 9.67408 55.7441 9.95518C55.6755 10.2363 55.498 10.4786 55.2507 10.6288C55.0663 10.7409 54.8529 10.7957 54.6373 10.7864C54.4217 10.7771 54.2137 10.7041 54.0396 10.5766C53.8655 10.4491 53.7332 10.2729 53.6593 10.0702C53.5854 9.86744 53.5732 9.64736 53.6244 9.43774C53.6756 9.22811 53.7877 9.03837 53.9467 8.89251C54.1057 8.74664 54.3044 8.6512 54.5177 8.61826C54.7309 8.58532 54.9492 8.61635 55.1448 8.70743C55.3404 8.79851 55.5046 8.94556 55.6166 9.12997Z" fill="white"/>
<path fill-rule="evenodd" clip-rule="evenodd" d="M58.0304 7.70027C58.1807 7.94756 58.2266 8.2444 58.1579 8.52549C58.0893 8.80658 57.9118 9.04891 57.6646 9.19915C57.4802 9.31119 57.2667 9.36603 57.0511 9.35674C56.8355 9.34745 56.6275 9.27444 56.4534 9.14695C56.2794 9.01945 56.147 8.8432 56.0731 8.64048C55.9992 8.43775 55.987 8.21767 56.0382 8.00804C56.0894 7.79842 56.2016 7.60868 56.3606 7.46282C56.5196 7.31695 56.7183 7.22152 56.9315 7.18857C57.1447 7.15563 57.363 7.18666 57.5586 7.27774C57.7542 7.36882 57.9184 7.51587 58.0304 7.70027Z" fill="white"/>
<path fill-rule="evenodd" clip-rule="evenodd" d="M60.5317 6.46591C60.6061 6.58835 60.6556 6.72425 60.6775 6.86584C60.6994 7.00743 60.6931 7.15194 60.6592 7.29113C60.6252 7.43031 60.5641 7.56144 60.4795 7.67703C60.3948 7.79261 60.2882 7.89039 60.1658 7.96478C59.9814 8.07682 59.7679 8.13166 59.5523 8.12237C59.3367 8.11307 59.1287 8.04006 58.9547 7.91257C58.7806 7.78507 58.6482 7.60882 58.5743 7.40609C58.5004 7.20337 58.4883 6.98328 58.5394 6.77366C58.5906 6.56404 58.7028 6.3743 58.8618 6.22844C59.0208 6.08258 59.2195 5.98714 59.4327 5.9542C59.646 5.92125 59.8642 5.95229 60.0598 6.04337C60.2554 6.13446 60.4196 6.2815 60.5317 6.46591Z" fill="white"/>
<path fill-rule="evenodd" clip-rule="evenodd" d="M56.5765 12.5431C56.5797 12.6864 56.5546 12.8288 56.5028 12.9624C56.4509 13.096 56.3733 13.218 56.2743 13.3215C56.1753 13.4251 56.0568 13.5081 55.9257 13.5659C55.7946 13.6237 55.6534 13.6551 55.5102 13.6583C55.2945 13.6631 55.0821 13.6038 54.9001 13.488C54.718 13.3722 54.5744 13.205 54.4874 13.0075C54.4004 12.81 54.3739 12.5912 54.4112 12.3787C54.4486 12.1662 54.5481 11.9695 54.6973 11.8136C54.8464 11.6576 55.0384 11.5494 55.249 11.5026C55.4597 11.4557 55.6795 11.4724 55.8806 11.5505C56.0818 11.6286 56.2552 11.7646 56.3791 11.9413C56.503 12.118 56.5717 12.3274 56.5765 12.5431Z" fill="white"/>
<path fill-rule="evenodd" clip-rule="evenodd" d="M59.3812 12.5158C59.3844 12.659 59.3593 12.8015 59.3075 12.9351C59.2556 13.0686 59.178 13.1907 59.079 13.2942C58.9799 13.3977 58.8615 13.4808 58.7304 13.5386C58.5993 13.5963 58.4581 13.6277 58.3149 13.6309C58.0991 13.6357 57.8868 13.5765 57.7048 13.4607C57.5227 13.3448 57.3791 13.1776 57.2921 12.9802C57.2051 12.7827 57.1786 12.5639 57.2159 12.3514C57.2533 12.1388 57.3528 11.9422 57.5019 11.7862C57.6511 11.6303 57.8431 11.522 58.0537 11.4752C58.2644 11.4284 58.4842 11.4451 58.6853 11.5232C58.8865 11.6013 59.0599 11.7373 59.1838 11.9139C59.3076 12.0906 59.3763 12.3001 59.3812 12.5158Z" fill="white"/>
<path fill-rule="evenodd" clip-rule="evenodd" d="M62.1871 12.4846C62.1903 12.6278 62.1652 12.7702 62.1134 12.9038C62.0615 13.0374 61.9839 13.1594 61.8849 13.263C61.7859 13.3665 61.6674 13.4495 61.5363 13.5073C61.4052 13.5651 61.264 13.5965 61.1208 13.5997C60.905 13.6045 60.6927 13.5452 60.5107 13.4294C60.3286 13.3136 60.185 13.1464 60.098 12.9489C60.011 12.7514 59.9845 12.5326 60.0218 12.3201C60.0592 12.1076 60.1587 11.9109 60.3079 11.755C60.457 11.599 60.649 11.4908 60.8596 11.444C61.0703 11.3971 61.2901 11.4138 61.4912 11.4919C61.6924 11.57 61.8658 11.706 61.9897 11.8827C62.1136 12.0594 62.1822 12.2688 62.1871 12.4846Z" fill="white"/>
<path fill-rule="evenodd" clip-rule="evenodd" d="M49.3661 5.78152C49.5094 5.77832 49.6518 5.80335 49.7854 5.85521C49.919 5.90706 50.041 5.98472 50.1445 6.08373C50.2481 6.18275 50.3311 6.30119 50.3889 6.4323C50.4467 6.56341 50.4781 6.70461 50.4813 6.84785C50.4861 7.06357 50.4268 7.27587 50.311 7.45792C50.1952 7.63997 50.0279 7.78358 49.8305 7.87059C49.633 7.9576 49.4142 7.9841 49.2017 7.94675C48.9892 7.9094 48.7925 7.80987 48.6365 7.66074C48.4806 7.51161 48.3724 7.31959 48.3256 7.10895C48.2787 6.89832 48.2954 6.67853 48.3735 6.47738C48.4516 6.27623 48.5876 6.10276 48.7643 5.9789C48.941 5.85504 49.1504 5.78635 49.3661 5.78152Z" fill="white"/>
<path fill-rule="evenodd" clip-rule="evenodd" d="M49.3661 2.97684C49.5094 2.97363 49.6518 2.99867 49.7854 3.05052C49.919 3.10238 50.041 3.18003 50.1445 3.27905C50.2481 3.37806 50.3311 3.49651 50.3889 3.62761C50.4467 3.75872 50.4781 3.89992 50.4813 4.04316C50.4861 4.25888 50.4268 4.47119 50.311 4.65324C50.1952 4.83528 50.0279 4.97889 49.8305 5.0659C49.633 5.15291 49.4142 5.17942 49.2017 5.14207C48.9892 5.10471 48.7925 5.00518 48.6365 4.85605C48.4806 4.70693 48.3724 4.51491 48.3256 4.30427C48.2787 4.09363 48.2954 3.87384 48.3735 3.6727C48.4516 3.47155 48.5876 3.29807 48.7643 3.17421C48.941 3.05035 49.1504 2.98166 49.3661 2.97684Z" fill="white"/>
<path fill-rule="evenodd" clip-rule="evenodd" d="M53.0788 6.65373C53.3326 6.79276 53.5207 7.0269 53.6018 7.30464C53.683 7.58239 53.6504 7.88098 53.5114 8.13474C53.4077 8.32397 53.2502 8.47821 53.0589 8.57795C52.8676 8.6777 52.6509 8.71846 52.4364 8.69509C52.2219 8.67171 52.0192 8.58526 51.8538 8.44665C51.6884 8.30804 51.5679 8.12351 51.5074 7.91639C51.4469 7.70926 51.4492 7.48886 51.5139 7.28303C51.5787 7.0772 51.7031 6.89521 51.8713 6.76005C52.0395 6.6249 52.244 6.54266 52.4589 6.52374C52.6739 6.50481 52.8896 6.55005 53.0788 6.65373Z" fill="white"/>
<path fill-rule="evenodd" clip-rule="evenodd" d="M54.4563 4.21232C54.71 4.35136 54.8982 4.5855 54.9793 4.86324C55.0604 5.14098 55.0279 5.43957 54.8888 5.69333C54.7852 5.88257 54.6277 6.03681 54.4364 6.13655C54.245 6.23629 54.0284 6.27705 53.8139 6.25368C53.5994 6.23031 53.3966 6.14385 53.2312 6.00525C53.0659 5.86664 52.9453 5.68211 52.8848 5.47499C52.8243 5.26786 52.8266 5.04745 52.8914 4.84162C52.9561 4.6358 53.0805 4.4538 53.2487 4.31865C53.4169 4.1835 53.6214 4.10126 53.8364 4.08233C54.0513 4.0634 54.267 4.10864 54.4563 4.21232Z" fill="white"/>
<path fill-rule="evenodd" clip-rule="evenodd" d="M55.833 1.76701C56.0867 1.90605 56.2749 2.14019 56.356 2.41793C56.4371 2.69567 56.4046 2.99426 56.2655 3.24802C56.1619 3.43726 56.0044 3.5915 55.8131 3.69124C55.6217 3.79098 55.4051 3.83174 55.1906 3.80837C54.9761 3.785 54.7733 3.69854 54.608 3.55994C54.4426 3.42133 54.322 3.2368 54.2615 3.02967C54.201 2.82255 54.2033 2.60214 54.2681 2.39631C54.3329 2.19049 54.4572 2.00849 54.6254 1.87334C54.7936 1.73818 54.9981 1.65594 55.2131 1.63702C55.428 1.61809 55.6437 1.66333 55.833 1.76701Z" fill="white"/>
<path fill-rule="evenodd" clip-rule="evenodd" d="M49.3661 0.0744918C49.5094 0.0712867 49.6518 0.0963237 49.7854 0.148176C49.919 0.200029 50.041 0.277679 50.1445 0.376695C50.2481 0.475711 50.3311 0.594154 50.3889 0.725259C50.4467 0.856364 50.4781 0.997566 50.4813 1.1408C50.4861 1.35652 50.4268 1.56883 50.311 1.75088C50.1952 1.93293 50.0279 2.07654 49.8305 2.16355C49.633 2.25057 49.4142 2.27707 49.2017 2.23972C48.9892 2.20237 48.7925 2.10284 48.6365 1.95371C48.4806 1.80459 48.3724 1.61257 48.3256 1.40193C48.2787 1.19129 48.2954 0.971503 48.3735 0.770354C48.4516 0.569205 48.5876 0.395732 48.7643 0.271869C48.941 0.148006 49.1504 0.0793189 49.3661 0.0744918Z" fill="white"/>
<path fill-rule="evenodd" clip-rule="evenodd" d="M42.1469 4.83743L44.9429 7.66727C45.4851 8.216 46.0305 8.21927 46.5793 7.6771C47.128 7.13492 47.1313 6.58947 46.5891 6.04074L43.7931 3.2109C43.2509 2.66216 42.7054 2.65889 42.1567 3.20107C41.608 3.74325 41.6047 4.2887 42.1469 4.83743Z" fill="#32960A"/>
<path fill-rule="evenodd" clip-rule="evenodd" d="M43.7832 4.84642L46.6131 2.05039C47.1618 1.50821 47.1651 0.962753 46.6229 0.414025C46.0807 -0.134711 45.5353 -0.137989 44.9865 0.404193L42.1567 3.20023C41.608 3.74241 41.6047 4.28786 42.1469 4.83659C42.689 5.38532 43.2345 5.3886 43.7832 4.84642Z" fill="#5AC832"/>
</svg>
