<svg width="66" height="66" viewBox="0 0 66 66" fill="none" xmlns="http://www.w3.org/2000/svg">
<rect x="5" y="5" width="56" height="56" rx="28" fill="#185087"/>
<path d="M26 38.8333C26 39.9183 26 40.4608 26.1193 40.9059C26.4429 42.1137 27.3863 43.0571 28.5941 43.3807C29.0392 43.5 29.5817 43.5 30.6667 43.5H37.9C39.8602 43.5 40.8403 43.5 41.589 43.1185C42.2475 42.783 42.783 42.2475 43.1185 41.589C43.5 40.8403 43.5 39.8602 43.5 37.9V28.1C43.5 26.1398 43.5 25.1597 43.1185 24.411C42.783 23.7525 42.2475 23.217 41.589 22.8815C40.8403 22.5 39.8602 22.5 37.9 22.5H30.6667C29.5817 22.5 29.0392 22.5 28.5941 22.6193C27.3863 22.9429 26.4429 23.8863 26.1193 25.0941C26 25.5392 26 26.0817 26 27.1667M33 28.3333L37.6667 33M37.6667 33L33 37.6667M37.6667 33H22.5" stroke="#D7DFEF" stroke-width="2" stroke-linecap="round" stroke-linejoin="round"/>
<rect x="5" y="5" width="56" height="56" rx="28" stroke="#183655" stroke-width="10"/>
</svg>
