<svg width="20" height="22" viewBox="0 0 20 22" fill="none" xmlns="http://www.w3.org/2000/svg">
<g id="elements">
<path id="Vector" d="M17 16L17 10C17 7.17157 17 5.75736 16.1213 4.87868C15.2426 4 13.8284 4 11 4H8M8 4C8 3.29977 9.9943 1.99153 10.5 1.5M8 4C8 4.70023 9.9943 6.00847 10.5 6.5" stroke="#667085" stroke-width="1.5" stroke-linecap="round" stroke-linejoin="round"/>
<path id="Vector_2" d="M3 6.5L3 12.5C3 15.3284 3 16.7426 3.87868 17.6213C4.75736 18.5 6.17157 18.5 9 18.5H12M12 18.5C12 19.2002 10.0057 20.5085 9.5 21M12 18.5C12 17.7998 10.0057 16.4915 9.5 16" stroke="#667085" stroke-width="1.5" stroke-linecap="round" stroke-linejoin="round"/>
<circle id="Ellipse 1637" cx="17" cy="18" r="2" stroke="#667085" stroke-width="1.5"/>
<circle id="Ellipse 1638" cx="3" cy="4" r="2" stroke="#667085" stroke-width="1.5"/>
</g>
</svg>
